# xmcd CD database file
#
# Track frame offsets:
#	151
#	25018
#	48161
#	69703
#	95823
#	115743
#	136005
#	163185
#	185945
#	216454
#
# Disc length: 2895 seconds
#
# Revision: 0
# Processed by: cddbd v1.4PL0 Copyright (c) Steve Scherf et al.
# Submitted via: Feurio! 1.65 - http://www.feurio.com
#
DISCID=930b4d0a
DTITLE=Rene' Moore - Destination Love
DYEAR=1900
DGENRE=blues
TTITLE0=All Of Nothing
TTITLE1=Good Love
TTITLE2=You're The One For Me
TTITLE3=Never Say Goodbye
TTITLE4=You Love Is Like No Other
TTITLE5=I Count The Hours
TTITLE6=Let Us Love Tonight
TTITLE7=Celebrate
TTITLE8=All Of Nothing (12" Remix)
TTITLE9=Blank Track
EXTD=
EXTT0=
EXTT1=
EXTT2=
EXTT3=
EXTT4=
EXTT5=
EXTT6=
EXTT7=
EXTT8=
EXTT9=
PLAYORDER=
